<svg id="Слой_2" data-name="Слой 2" xmlns="http://www.w3.org/2000/svg" viewBox="0 0 664.84 616.85"><defs><style>.cls-1{fill:#000105;}.cls-2{fill:#ee9a2f;}.cls-3{fill:#fbfe05;opacity:0.76;}.cls-4{fill:#f87b8f;}.cls-5{fill:#f5cbd2;}.cls-6{fill:#b56223;}.cls-7{fill:#eaeaea;}.cls-8{fill:#fefefe;}.cls-9{fill:#f09930;}.cls-10{fill:#b0602a;}.cls-11{fill:#040000;}.cls-12{fill:#fefe01;}.cls-13{fill:#bebebe;}.cls-14{fill:#b5b5b5;}</style></defs><path class="cls-1" d="M687.08,489.41c-3.78-15.6-14-29.2-22-41C635.58,405,624.33,390,619,351.38c65-1.15,114-57.52,114-118.47,0-61.58-40.74-111.5-91-111.5-35.48,0-62.51,20.9-82,55-6.23,10.9-21.55,30.89-42.19,36.38a223.35,223.35,0,0,0-39.32-19.09c12-27.5-.56-51.14-6.74-60.26a2.91,2.91,0,0,0-5,.3c-3.79,7.44-13,22.41-27.7,28.34-2.91-35.43-26.23-55.06-35.25-61.38a6.31,6.31,0,0,0-7.14-.06c-9.42,6.34-34.17,26.33-35.43,62-15.55-5.53-25.16-21.2-29.06-28.86a2.9,2.9,0,0,0-5-.31c-6.11,9-18.5,32.21-7.17,59.32a223.66,223.66,0,0,0-40.18,18.94c-18.85-6.67-32.79-25-38.66-35.27-19.49-34.1-46.52-55-82-55-50.26,0-91,49.92-91,111.5,0,61.25,49.47,117.88,114.94,118.49q-.54,3.53-1,7.1a123.66,123.66,0,0,1-15.7,48.39c-6.73,11.54-15.57,24.29-27.29,41.52-8,11.8-18.23,25.4-22,41-5,20.48-4,47-21,63,8.06,3,21.2,1,29.18-3.09h0c-3.42,27.26,5.12,62.49,27.24,84.88,3.3-15.13,7.88-24.53,13.11-30.28a103,103,0,0,0,50.53,49c-.84-15.9-1-25.71.16-31.78,17.58,31.71,52.3,53.29,92.27,53.29q2.12,0,4.2-.09c19,25.48,50,42.09,85.05,42.09,35.34,0,66.57-16.87,85.48-42.69a110.48,110.48,0,0,0,12.27.69c40,0,74.69-21.58,92.26-53.29,1.15,6.07,1,15.88.17,31.78a103,103,0,0,0,50.53-49c5.22,5.75,9.8,15.15,13.11,30.28,22.11-22.39,30.65-57.62,27.23-84.88h0c8,4.06,21.12,6.12,29.19,3.09C691.08,536.41,692,509.89,687.08,489.41Z" transform="translate(-68.08 -99.56)"/><path class="cls-2" d="M642.11,141.62c-32.75-3.87-50.63,16.77-65,44.24-5.46,10.44-24.81,31.54-39.56,36.2,12.59,8.32,25.74,21.74,37.72,38.81,9.08-10,20.1-19.89,28.75-28.38,26.09-25.63,55.71-15.4,65.09,3.37,10,20,1,47-27.1,62.44A108.44,108.44,0,0,1,605.33,310q-1.82.24-3.63.42c2.2,5.61,4.12,11.16,5.75,16.59,69.4,2.8,101.68-46.49,101.68-95.54C709.13,181.82,678.13,145.86,642.11,141.62Z" transform="translate(-68.08 -99.56)"/><path class="cls-3" d="M550.13,231.86c14.74-4.66,34.54-25.56,40-36,14.35-27.47,32.23-48.11,65-44.24a65,65,0,0,1,26.06,9.09c-11.12-10.64-24.69-17.4-39.06-19.09-32.75-3.87-50.63,16.77-65,44.24-5.46,10.44-24.81,31.54-39.56,36.2A106.18,106.18,0,0,1,550.13,231.86Z" transform="translate(-68.08 -99.56)"/><path class="cls-4" d="M652.13,244.86c-5.64-11.27-18-16-38-2-10,7-24,28-29,35,3.11,4.87,7,14.86,7.39,15.7,10.26-1.39,27.39-5.83,37.61-10.7C651.13,272.86,658.13,256.87,652.13,244.86Z" transform="translate(-68.08 -99.56)"/><path class="cls-5" d="M619.61,247.49c10.5-7.31,19.21-10.3,26.26-10.21-6.81-4.82-17.27-4.49-31.71,5.58-10,7-24,27.95-29.07,34.94a60.56,60.56,0,0,1,3.37,6.42C596,273.55,609.51,254.54,619.61,247.49Z" transform="translate(-68.08 -99.56)"/><path class="cls-6" d="M686.43,166.24a115.55,115.55,0,0,1,3.7,29.12A113.13,113.13,0,0,1,673,255.75c-1.16,15.62-11.46,31.85-30.92,42.55A108.44,108.44,0,0,1,605.33,310q-1.82.24-3.63.42c2.2,5.61,4.12,11.16,5.75,16.59,69.4,2.8,101.68-46.49,101.68-95.54C709.13,204.85,700.23,182.21,686.43,166.24Z" transform="translate(-68.08 -99.56)"/><path class="cls-2" d="M156.59,141.62c32.76-3.87,50.63,16.77,65,44.24,5.46,10.44,24.81,31.54,39.56,36.2-12.58,8.32-25.74,21.74-37.71,38.81-9.08-10-20.11-19.89-28.76-28.38-26.09-25.63-55.7-15.4-65.09,3.37-10,20-1,47,27.1,62.44A108.5,108.5,0,0,0,193.38,310c1.21.16,2.42.3,3.62.42-2.19,5.61-4.12,11.16-5.75,16.59-69.39,2.8-101.68-46.49-101.68-95.54C89.57,181.82,120.57,145.86,156.59,141.62Z" transform="translate(-68.08 -99.56)"/><path class="cls-3" d="M248.57,231.86c-14.74-4.66-34.54-25.56-40-36-14.35-27.47-32.22-48.11-65-44.24a65,65,0,0,0-26.06,9.09c11.12-10.64,24.69-17.4,39.06-19.09,32.76-3.87,50.63,16.77,65,44.24,5.46,10.44,24.81,31.54,39.56,36.2A106.18,106.18,0,0,0,248.57,231.86Z" transform="translate(-68.08 -99.56)"/><path class="cls-4" d="M146.57,244.86c5.64-11.27,18-16,38-2,10,7,24,28,29,35-3.11,4.87-7,14.86-7.38,15.7-10.27-1.39-27.39-5.83-37.62-10.7C147.57,272.86,140.57,256.87,146.57,244.86Z" transform="translate(-68.08 -99.56)"/><path class="cls-5" d="M179.09,247.49c-10.49-7.31-19.21-10.3-26.26-10.21,6.82-4.82,17.27-4.49,31.71,5.58,10,7,24.06,27.95,29.07,34.94a58.83,58.83,0,0,0-3.36,6.42C202.74,273.55,189.19,254.54,179.09,247.49Z" transform="translate(-68.08 -99.56)"/><path class="cls-6" d="M112.27,166.24a115.55,115.55,0,0,0-3.7,29.12,113.13,113.13,0,0,0,17.18,60.39c1.17,15.62,11.46,31.85,30.92,42.55A108.5,108.5,0,0,0,193.38,310c1.21.16,2.42.3,3.62.42-2.19,5.61-4.12,11.16-5.75,16.59-69.39,2.8-101.68-46.49-101.68-95.54C89.57,204.85,98.47,182.21,112.27,166.24Z" transform="translate(-68.08 -99.56)"/><path class="cls-7" d="M621.21,532H516.6c-26.72,0-51.78-13.78-65.38-36.79-12.86-21.74-21.05-52.9-22.87-94.12,0,.3,0,.6,0,.91v-.91c.19-131.23,26.78-175.23,100-163.09h3.6c-13.92-20.28-45.09-29-72.6-29H431.21a88.53,88.53,0,0,0,8.45-4.47c13.82-8.26,21.87-26,22.87-35,.35-3.22-1.64-.51-2,0-5.28,7.26-15.36,14.15-26.47,18.54a83.1,83.1,0,0,1-21,5.4c4.4-7.58,7.25-19.51,7.25-32.94,0-16.11-9.14-30.08-14.57-37a5,5,0,0,0-7.86,0c-5.43,6.88-14.57,20.85-14.57,37,0,13.34,2.81,25.2,7.17,32.79a83.61,83.61,0,0,1-19.7-5.25c-11.12-4.39-21.2-11.28-26.47-18.54-.36-.51-2.36-3.22-2,0,1,9,9.05,26.76,22.87,35a89.61,89.61,0,0,0,8.44,4.47H347.34c-27.51,0-60.92,8.71-76,29h2c65.79-11.14,99.81,31.86,100,163.09v0c-1.83,41.21-10,72.36-22.86,94.1-13.59,23-38.66,36.81-65.4,36.81H177.47c-18.22,0-33.13,13-32.13,34h0s8.79-11.14,15-12.79a2.17,2.17,0,0,1,2.94,1.91c.22,19.51,11.29,43.54,34.06,55.88,0,0,1.72-13.74,3-18a65.07,65.07,0,0,1,7-16,148.3,148.3,0,0,0,31,43c27.26,26,64,34,64,34h0s-4-9-5-16a77.11,77.11,0,0,1-.21-15.8A511.78,511.78,0,0,0,335.34,662c22.64,21.22,33.79,26.86,64,29,25.79-.09,41.36-7.73,64-29a511.78,511.78,0,0,0,38.21-39.8,77.11,77.11,0,0,1-.21,15.8c-1,7-5,16-5,16h0s36.75-8,64-34a148.3,148.3,0,0,0,31-43h0a65.07,65.07,0,0,1,7,16c1.28,4.26,3,18,3,18,22.95-12.43,34-36.75,34.06-56.34a1.86,1.86,0,0,1,2.5-1.64c7.23,1.84,15.43,13,15.44,13h0C654.34,545,639.43,532,621.21,532Z" transform="translate(-68.08 -99.56)"/><path d="M461.64,556.36c-12.51-1.32-23.28,3.37-29.18,10.91-2.8,3.57-12.33,12.59-26.33,5.59V548.43c17.3-2.42,30.5-14.92,30.5-25.83,0-12.15-16.34-17.74-36.5-17.74s-36.5,5.59-36.5,17.74c0,10.91,13.2,23.41,30.5,25.83v24.43c-12,7-23.59-1.69-25.42-4.36-5.66-8.24-16.91-13.53-30.09-12.14a25.11,25.11,0,0,0-23,23c4.49-4,12.5-14.26,22-14,4.35.12,8.44,3.85,12.17,9.48,2.5,14.75,11.83,66.25,22.34,82,10,15,41.94,13,52,0,7.82-10.15,20-60.32,24.39-79,4.43-7.5,9.26-12.65,14.12-12.51,11.5.33,17.51,10,22,14A25.11,25.11,0,0,0,461.64,556.36Z" transform="translate(-68.08 -99.56)"/><path class="cls-4" d="M428.13,522.86c0,6.63-12.31,16-27.5,16s-27.5-9.37-27.5-16,12.31-8,27.5-8S428.13,516.23,428.13,522.86Z" transform="translate(-68.08 -99.56)"/><path class="cls-5" d="M412.71,521.13c0,3.2-5.95,7.73-13.29,7.73s-13.29-4.53-13.29-7.73,5.95-3.87,13.29-3.87S412.71,517.92,412.71,521.13Z" transform="translate(-68.08 -99.56)"/><path class="cls-8" d="M403.56,588l-4.43,15.83-3.2-16a2.72,2.72,0,0,0-3.43-2.07l-12.37,3.05,6.25,21.45a6.51,6.51,0,0,0,6.53,5.55h12.44a6.51,6.51,0,0,0,6.53-5.55l6.25-21.45-11.19-2.7A2.71,2.71,0,0,0,403.56,588Z" transform="translate(-68.08 -99.56)"/><path class="cls-9" d="M605.13,379.87c13,51,68,89,64,130-9-9-28-10-34-10,3,3,7,9,9,18-54-20-108-8-135-9-40-1.48-59-52.93-59-125s17.46-131,57.5-131c20.63,0,39.64,3,60.5,25C586.13,296.87,596.5,346,605.13,379.87Z" transform="translate(-68.08 -99.56)"/><path class="cls-10" d="M605.13,379.85c-8.63-33.85-19-83-37-102-19.5-20.58-37.37-24.53-56.47-25,42.1,18.31,58,77.32,64.47,111,15,78,57,74,63,124-10-8-27-8-33-8,2.67,2.67,9,13.79,9,30,11,2,20,5,29,8-2-9-6-15-9-18,6,0,25,1,34,10C673.13,468.85,618.13,430.85,605.13,379.85Z" transform="translate(-68.08 -99.56)"/><path class="cls-11" d="M565.13,370.86c-2.35-2.35-20.65,8.41-40,26.07a82.37,82.37,0,0,1,6.56-18.23c6.06-12.19,14.5-21.95,23.63-28.28-16.74,2.33-36.16,19.17-48.53,44a108.63,108.63,0,0,0-8.32,22.5,172,172,0,0,1-9.84,28.21c-7.39,16.79-9.31,30.84-7.46,32.69,15,15,63.9,12.44,85-16C589.13,430.86,586.34,392.07,565.13,370.86Z" transform="translate(-68.08 -99.56)"/><path class="cls-7" d="M560.13,392.86c1.85,1.38,10,31-9,58-14.54,20.66-37,22-53,17-.38-.12-2.13-1.37-2-3,.56-7.25,8.13-27.13,23-42C546.13,395.86,559.8,392.62,560.13,392.86Z" transform="translate(-68.08 -99.56)"/><circle class="cls-11" cx="450.55" cy="338.8" r="19.5"/><path class="cls-9" d="M196.13,379.87c-13,51-68,89-64,130,9-9,28-10,34-10-3,3-7,9-9,18,56-18,108-5.33,135-6,40-1,59-55.92,59-128s-17.46-131-57.5-131c-20.64,0-39.64,3-60.5,25C215.13,296.87,204.76,346,196.13,379.87Z" transform="translate(-68.08 -99.56)"/><path class="cls-12" d="M196.13,379.85c8.63-33.85,19-83,37-102,19.5-20.58,37.37-24.53,56.47-25-42.1,18.31-58,77.32-64.47,111-15,78-53,83-61,124,9-9,25-8,31-8-2.67,2.67-9,14.79-9,31-12,2-18,4-29,7,2-9,6-15,9-18-6,0-25,1-34,10C128.13,468.85,183.13,430.85,196.13,379.85Z" transform="translate(-68.08 -99.56)"/><path class="cls-11" d="M236.13,370.86c2.35-2.35,20.65,8.41,40,26.07a82.37,82.37,0,0,0-6.56-18.23c-6.06-12.19-14.5-21.95-23.63-28.28,16.74,2.33,36.16,19.17,48.53,44a109.21,109.21,0,0,1,8.32,22.5,172,172,0,0,0,9.84,28.21C320.06,462,322,476,320.13,477.86c-15,15-63.9,12.44-85-16C212.13,430.86,214.92,392.07,236.13,370.86Z" transform="translate(-68.08 -99.56)"/><path class="cls-7" d="M241.13,392.86c-1.86,1.38-10,31,9,58,14.54,20.66,37,22,53,17,.38-.12,2.13-1.37,2-3-.56-7.25-8.14-27.13-23-42C255.13,395.86,241.45,392.62,241.13,392.86Z" transform="translate(-68.08 -99.56)"/><circle class="cls-11" cx="214.55" cy="338.8" r="19.5"/><path class="cls-13" d="M397.1,593.71l-1.17-5.83a2.72,2.72,0,0,0-3.43-2.07l-8.27,2A35.92,35.92,0,0,1,397.1,593.71Z" transform="translate(-68.08 -99.56)"/><path class="cls-13" d="M406.94,586.16a2.71,2.71,0,0,0-3.38,1.87l-2.52,9a30.28,30.28,0,0,1,8.77,17.11,6.27,6.27,0,0,0,2.07-3.85l6.25-21.45Z" transform="translate(-68.08 -99.56)"/><path class="cls-14" d="M621.21,531.86h-8.85c1,13.69-1,30-13.08,39.6a135,135,0,0,0-4.15-13.74c-3.46-8.65-8-11-8-11,0,6-9,26-29,50-19.63,23.56-42.07,36.8-47,38-.47.12,2-20-3-35-6,9-15.95,21.44-27,35-49,60.14-82,56.08-82,56.08h.21c25.79-.09,41.36-7.72,64-28.95a511.78,511.78,0,0,0,38.21-39.8,77.11,77.11,0,0,1-.21,15.8c-1,7-5,16-5,16s36.75-8,64-34a148.3,148.3,0,0,0,31-43,65.07,65.07,0,0,1,7,16c1.28,4.27,3,18,3,18,22.95-12.43,34-36.74,34.06-56.33a1.85,1.85,0,0,1,2.5-1.64c7.23,1.83,15.43,13,15.44,13h0C654.34,544.86,639.43,531.86,621.21,531.86Z" transform="translate(-68.08 -99.56)"/><path class="cls-8" d="M177.3,531.86h8.85c-1,13.69,1,30,13.09,39.6a135,135,0,0,1,4.15-13.74c3.46-8.65,8-11,8-11,0,6,9,26,29,50,19.63,23.56,42.06,36.8,47,38,.47.12-2-20,3-35,6,9,15.95,21.44,27,35,49,60.14,82,56.08,82,56.08h-.21c-25.79-.09-41.36-7.72-64-28.95A511.78,511.78,0,0,1,297,622.06a77.11,77.11,0,0,0,.21,15.8c1,7,5,16,5,16s-36.75-8-64-34a148.3,148.3,0,0,1-31-43,65.07,65.07,0,0,0-7,16c-1.28,4.27-3,18-3,18-23-12.43-34-36.74-34.07-56.33a1.84,1.84,0,0,0-2.49-1.64c-7.23,1.83-15.44,13-15.44,13h0C144.18,544.86,159.08,531.86,177.3,531.86Z" transform="translate(-68.08 -99.56)"/><path class="cls-14" d="M431.21,209c17.9,2,30.05,4.53,43.38,10.94,8,3.87,16.85,11.11,21,16.88a99.48,99.48,0,0,1,16.22-.57c13.94.51,21.13,3.52,21.13,3.52l-1-1.71h0c-13.93-20.28-45.09-29-72.6-29Z" transform="translate(-68.08 -99.56)"/><path class="cls-8" d="M368.82,209c-17.9,2-30.05,4.53-43.38,10.94-8,3.87-16.85,11.11-21,16.88a99.48,99.48,0,0,0-16.22-.57c-13.94.51-21.13,3.52-21.13,3.52l1-1.71h0c13.93-20.28,45.09-29,72.6-29Z" transform="translate(-68.08 -99.56)"/></svg>