<svg width="24" height="24" viewBox="0 0 24 24" fill="#0088cc" xmlns="http://www.w3.org/2000/svg">
<path fill-rule="evenodd" clip-rule="evenodd" d="M24 12C24 18.6274 18.6274 24 12 24C5.37258 24 0 18.6274 0 12C0 5.37258 5.37258 0 12 0C18.6274 0 24 5.37258 24 12ZM12.4299 8.85893C11.2627 9.3444 8.93001 10.3492 5.43177 11.8733C4.86371 12.0992 4.56614 12.3202 4.53905 12.5363C4.49326 12.9015 4.95059 13.0453 5.57335 13.2411C5.65806 13.2678 5.74583 13.2954 5.83582 13.3246C6.44851 13.5238 7.2727 13.7568 7.70117 13.766C8.08982 13.7744 8.52361 13.6142 9.00252 13.2853C12.271 11.079 13.9583 9.96381 14.0642 9.93977C14.1389 9.92281 14.2425 9.90148 14.3126 9.96385C14.3828 10.0262 14.3759 10.1443 14.3685 10.176C14.3232 10.3691 12.528 12.0381 11.599 12.9018C11.3094 13.171 11.104 13.362 11.062 13.4056C10.9679 13.5033 10.872 13.5958 10.7799 13.6846C10.2106 14.2333 9.78379 14.6448 10.8035 15.3168C11.2935 15.6397 11.6856 15.9067 12.0768 16.1731C12.504 16.4641 12.9302 16.7543 13.4815 17.1157C13.622 17.2077 13.7561 17.3034 13.8868 17.3965C14.3839 17.751 14.8306 18.0694 15.3825 18.0186C15.7031 17.9891 16.0343 17.6876 16.2026 16.7884C16.6001 14.6631 17.3815 10.0585 17.5621 8.16097C17.5779 7.99473 17.558 7.78197 17.542 7.68857C17.526 7.59518 17.4926 7.46211 17.3712 7.3636C17.2275 7.24694 17.0055 7.22234 16.9062 7.22408C16.4549 7.23203 15.7624 7.47282 12.4299 8.85893Z" fill="#0088cc"/>
</svg>
