<?xml version="1.0" encoding="UTF-8" ?>
<svg
  width="32px"
  height="32px"
  viewBox="0 0 32 32"
  version="1.1"
  xmlns="http://www.w3.org/2000/svg"
  xmlns:xlink="http://www.w3.org/1999/xlink"
>
    <title>ic-32-un-allsetting-dark</title>
    <g
    id="ic-32-un-allsetting-dark"
    stroke="none"
    stroke-width="1"
    fill="none"
    fill-rule="evenodd"
  >
        <g id="setting-2">
            <path
        d="M16,20 C13.790861,20 12,18.209139 12,16 C12,13.790861 13.790861,12 16,12 C18.209139,12 20,13.790861 20,16 C20,18.209139 18.209139,20 16,20 Z"
        id="Vector"
        stroke="#797775"
        stroke-width="1.5"
        stroke-linecap="round"
        stroke-linejoin="round"
        stroke-dasharray="0,0"
      />
            <path
        d="M2.66666667,14.8265813 C2.66666667,13.4399147 3.80000019,12.2932491 5.20000013,12.2932491 C7.61333338,12.2932491 8.59999998,10.586582 7.38666662,8.49324862 C6.69333331,7.29324865 7.10666633,5.73324855 8.31999969,5.03991524 L10.6266664,3.71991527 C11.6799997,3.09324861 13.04,3.46658206 13.6666667,4.51991542 L13.8133329,4.77324851 C15.0133328,6.86658192 16.9866661,6.86658192 18.1999995,4.77324851 L18.346667,4.51991542 C18.9733336,3.46658206 20.3333345,3.09324861 21.3866679,3.71991527 L23.6933339,5.03991524 C24.9066673,5.73324855 25.3199991,7.29324865 24.6266658,8.49324862 C23.4133324,10.586582 24.4000009,12.2932491 26.8133341,12.2932491 C28.2000008,12.2932491 29.346667,13.4265814 29.346667,14.8265813 L29.346667,17.1732483 C29.346667,18.5599149 28.2133341,19.7065811 26.8133341,19.7065811 C24.4000009,19.7065811 23.4133324,21.4132469 24.6266658,23.5065804 C25.3199991,24.7199137 24.9066673,26.2665819 23.6933339,26.9599152 L21.3866679,28.2799149 C20.3333345,28.9065815 18.9733336,28.5332503 18.346667,27.4799169 L18.1999995,27.2265828 C16.9999995,25.1332494 15.0266662,25.1332494 13.8133329,27.2265828 L13.6666667,27.4799169 C13.04,28.5332503 11.6799997,28.9065815 10.6266664,28.2799149 L8.31999969,26.9599152 C7.10666633,26.2665819 6.69333331,24.7065803 7.38666662,23.5065804 C8.59999998,21.4132469 7.61333338,19.7065811 5.20000013,19.7065811 C3.80000019,19.7065811 2.66666667,18.5599149 2.66666667,17.1732483 L2.66666667,14.8265813 Z"
        id="Vector"
        stroke="#797775"
        stroke-width="1.5"
        stroke-linecap="round"
        stroke-linejoin="round"
        stroke-dasharray="0,0"
        fill-rule="nonzero"
      />
            <path d="M32,0 L32,32 L0,32 L0,0 L32,0 Z" id="Vector" opacity="0" />
        </g>
    </g>
</svg>
